<?xml version="1.0" standalone="no"?>
<!DOCTYPE svg PUBLIC "-//W3C//DTD SVG 20010904//EN"
 "http://www.w3.org/TR/2001/REC-SVG-20010904/DTD/svg10.dtd">
<svg version="1.0" xmlns="http://www.w3.org/2000/svg"
 width="512.000000pt" height="512.000000pt" viewBox="0 0 512.000000 512.000000"
 preserveAspectRatio="xMidYMid meet">
<metadata>
Created by potrace 1.11, written by Peter Selinger 2001-2013
</metadata>
<g transform="translate(0.000000,512.000000) scale(0.100000,-0.100000)"
fill="#000000" stroke="none">
<path d="M2305 5008 c-457 -46 -925 -239 -1291 -534 -421 -339 -724 -819 -849
-1344 -41 -173 -56 -295 -62 -496 -7 -222 5 -362 49 -579 205 -1027 1079
-1826 2126 -1946 142 -16 556 -7 682 15 494 86 952 317 1309 661 423 408 682
946 742 1539 25 254 -1 590 -66 846 -73 289 -220 600 -399 845 -36 49 -66 93
-66 97 0 7 22 24 174 133 31 22 60 52 66 66 23 55 -14 109 -75 109 -27 0 -73
-28 -269 -164 -16 -11 -158 112 -182 157 -8 15 -34 36 -57 47 -23 11 -66 42
-96 68 l-54 48 66 47 c36 26 73 57 82 69 22 33 19 75 -10 103 -42 43 -74 34
-192 -50 l-105 -74 -77 41 c-111 60 -118 65 -133 95 -18 38 -61 58 -98 44 -24
-8 -44 -5 -110 20 -181 66 -418 119 -619 139 -121 12 -359 11 -486 -2z m-225
-313 c14 -8 46 -14 73 -15 26 0 47 -2 47 -5 0 -4 -7 -20 -16 -37 -11 -21 -15
-46 -11 -75 5 -47 3 -49 -33 -28 -14 8 -49 14 -77 15 -57 0 -59 2 -38 40 8 14
14 46 15 73 0 51 3 53 40 32z m850 -620 c23 -27 4 -48 -110 -128 -318 -222
-313 -218 -293 -231 75 -51 56 -56 199 44 76 54 136 90 148 88 24 -4 41 -30
33 -51 -3 -8 -56 -50 -119 -92 -62 -43 -117 -82 -122 -86 -5 -5 2 -25 19 -48
l27 -40 62 43 c456 323 474 333 499 295 6 -9 8 -23 4 -32 -3 -8 -123 -97 -266
-197 -144 -101 -261 -188 -261 -194 0 -22 21 -86 28 -86 4 1 84 54 177 120 94
66 180 120 192 120 28 0 43 -44 22 -65 -8 -8 -99 -74 -203 -147 l-189 -133
-17 -67 c-9 -38 -14 -68 -11 -68 3 0 67 43 141 95 149 105 185 117 185 60 0
-28 -18 -43 -245 -203 -135 -95 -272 -188 -305 -207 -221 -126 -505 -61 -647
147 -130 191 -110 451 47 613 67 69 506 375 538 375 26 0 41 -22 32 -49 -3 -9
-53 -50 -113 -91 l-107 -75 50 -6 c28 -3 60 -9 70 -12 15 -4 82 39 250 158
127 90 240 164 251 164 12 1 27 -6 34 -14z m1505 -505 c5 -23 15 -32 47 -42
l42 -14 -37 -28 c-32 -24 -37 -34 -37 -68 l0 -40 -31 27 c-18 14 -38 24 -46
20 -8 -3 -26 -8 -41 -12 -21 -5 -24 -3 -19 11 19 49 18 66 -3 93 l-22 28 40 5
c29 4 47 13 62 33 25 31 36 29 45 -13z m-3362 -72 c32 -17 56 -21 105 -19 l63
2 -26 -51 c-23 -45 -25 -58 -19 -111 l7 -61 -53 27 c-46 23 -60 26 -111 20
-33 -4 -59 -5 -59 -2 0 3 10 27 23 55 19 41 22 60 17 106 -3 31 -2 56 2 56 5
0 28 -10 51 -22z m2705 -678 c7 -11 20 -20 30 -20 31 0 33 -11 7 -42 -14 -16
-25 -36 -25 -45 0 -11 -8 -8 -31 11 -17 14 -37 26 -45 26 -19 0 -18 14 2 31 9
7 20 23 25 36 11 28 20 29 37 3z m-3137 -154 l42 -25 50 25 c27 14 51 23 54
20 3 -3 1 -29 -4 -57 -11 -52 -11 -52 28 -94 21 -23 36 -45 32 -48 -3 -4 -20
-7 -37 -7 -57 0 -72 -10 -98 -63 l-25 -51 -29 55 c-28 52 -31 54 -81 62 -29 5
-53 12 -53 16 0 4 18 25 40 46 22 22 38 46 36 55 -12 44 -16 90 -7 90 5 0 28
-11 52 -24z m1053 -66 c10 -38 20 -70 21 -70 2 0 34 13 71 29 38 16 71 28 73
26 2 -2 -13 -34 -33 -70 l-37 -66 56 -24 c30 -14 60 -25 65 -25 5 0 11 -4 14
-9 3 -5 -26 -19 -64 -30 -39 -12 -70 -26 -70 -32 0 -5 11 -36 25 -69 14 -33
25 -62 25 -66 0 -3 -30 11 -66 31 -37 20 -69 33 -73 30 -3 -4 -18 -37 -33 -73
-25 -64 -27 -66 -36 -41 -6 15 -16 46 -22 70 -7 24 -14 47 -16 51 -3 4 -35 -6
-72 -22 -37 -16 -68 -27 -70 -25 -2 2 10 30 27 64 17 33 31 65 31 69 0 5 -27
20 -60 32 -33 12 -63 26 -65 30 -3 5 27 18 65 29 39 12 70 23 70 25 0 1 -11
30 -25 64 -14 34 -25 66 -25 71 0 5 28 -6 63 -25 34 -18 65 -34 68 -34 3 0 18
29 34 65 15 36 30 65 34 65 4 0 15 -31 25 -70z m2061 -370 c10 -17 -10 -35
-126 -116 -60 -41 -111 -78 -113 -83 -9 -14 31 -44 46 -35 7 4 44 30 81 57 67
47 97 54 97 23 0 -8 -34 -38 -75 -67 -62 -44 -73 -55 -64 -70 5 -10 13 -20 18
-23 4 -3 76 42 160 100 143 100 181 117 181 81 0 -7 -70 -62 -155 -122 -138
-96 -155 -111 -155 -137 0 -15 5 -28 10 -28 6 0 56 32 112 71 95 67 128 78
128 45 0 -8 -54 -52 -119 -98 -103 -72 -120 -87 -126 -117 -3 -18 -4 -35 -2
-37 2 -3 41 21 87 52 69 48 84 54 96 43 7 -8 10 -19 6 -24 -11 -16 -302 -220
-352 -246 -36 -19 -60 -24 -125 -24 -70 0 -87 4 -134 30 -137 76 -193 240
-129 375 15 30 35 65 45 77 24 28 312 233 328 233 21 0 26 -30 7 -45 -9 -8
-39 -30 -65 -48 -38 -27 -45 -36 -32 -41 42 -16 71 -2 203 89 136 95 155 104
167 85z m-1275 -59 c0 -6 -29 -31 -65 -56 -36 -26 -65 -51 -65 -55 0 -22 23
-18 61 10 47 34 59 37 59 15 0 -8 -4 -15 -8 -15 -4 0 -23 -13 -42 -29 -29 -24
-32 -30 -19 -36 11 -4 43 13 94 49 73 53 105 67 105 48 0 -5 -40 -37 -90 -71
-49 -34 -90 -69 -90 -77 0 -22 15 -17 76 26 31 22 61 37 65 34 14 -8 2 -21
-61 -64 -56 -38 -88 -75 -76 -87 3 -3 24 9 48 26 46 34 58 38 58 19 0 -18
-173 -138 -221 -155 -72 -24 -160 13 -193 81 -22 47 -21 123 3 162 18 30 180
154 201 154 19 0 10 -20 -20 -42 -25 -18 -28 -23 -15 -31 12 -6 35 5 86 40 39
26 73 51 75 55 7 11 34 10 34 -1z m-1410 -686 c14 -8 51 -14 83 -15 l57 0 -21
-42 c-15 -30 -20 -53 -16 -85 5 -47 -2 -52 -43 -28 -14 8 -49 14 -77 15 -57 0
-59 2 -38 40 8 14 14 49 15 78 0 56 2 58 40 37z m3397 -35 c14 -11 32 -20 39
-20 20 0 17 -14 -6 -35 -11 -10 -20 -24 -20 -31 0 -23 -21 -26 -36 -5 -8 12
-24 21 -34 21 -27 0 -34 17 -11 29 10 6 22 22 25 36 8 30 11 31 43 5z m-1443
-79 c15 -15 46 -34 68 -40 l42 -13 -37 -35 c-20 -19 -37 -38 -37 -43 0 -5 -5
-21 -10 -35 l-10 -27 -39 35 c-21 19 -53 38 -70 42 -39 8 -39 15 -1 43 17 13
34 39 41 62 7 22 15 40 19 40 3 0 19 -13 34 -29z m475 -510 c13 -18 36 -33 67
-41 l48 -14 -36 -30 c-19 -17 -41 -48 -47 -68 -7 -21 -16 -38 -20 -38 -4 0
-17 13 -28 28 -12 16 -38 33 -62 40 -22 7 -41 16 -41 21 0 4 13 17 30 29 18
14 33 37 40 62 13 48 22 50 49 11z m-1768 -140 l45 -23 52 26 c29 15 52 25 52
23 0 -3 -5 -28 -10 -57 l-10 -53 42 -46 c29 -31 38 -46 28 -48 -8 -1 -36 -4
-61 -8 -43 -5 -48 -9 -74 -57 l-28 -52 -26 52 c-19 40 -31 52 -53 57 -15 3
-42 8 -59 11 l-31 6 42 43 43 43 -8 57 c-4 32 -3 56 2 53 4 -2 29 -14 54 -27z"/>
</g>
</svg>
