<?xml version="1.0" standalone="no"?>
<!DOCTYPE svg PUBLIC "-//W3C//DTD SVG 20010904//EN"
 "http://www.w3.org/TR/2001/REC-SVG-20010904/DTD/svg10.dtd">
<svg version="1.0" xmlns="http://www.w3.org/2000/svg"
 width="512.000000pt" height="512.000000pt" viewBox="0 0 512.000000 512.000000"
 preserveAspectRatio="xMidYMid meet">
<metadata>
Created by potrace 1.11, written by Peter Selinger 2001-2013
</metadata>
<g transform="translate(0.000000,512.000000) scale(0.100000,-0.100000)"
fill="#000000" stroke="none">
<path d="M2331 5109 c-471 -42 -931 -220 -1319 -511 -119 -89 -339 -302 -437
-423 -414 -510 -622 -1181 -565 -1825 79 -888 593 -1656 1380 -2063 260 -135
524 -218 835 -263 180 -27 514 -24 704 5 551 84 1022 318 1418 704 457 445
719 1017 765 1664 24 336 -30 721 -147 1039 -79 215 -224 482 -361 662 l-63
85 122 84 c67 47 128 92 135 101 21 27 15 80 -13 107 -42 43 -68 34 -219 -71
l-138 -97 -70 69 c-38 38 -81 86 -94 106 -13 20 -34 40 -46 43 -13 4 -60 35
-106 69 l-83 61 27 20 c152 112 149 109 152 147 3 29 -2 43 -22 63 -38 38 -72
33 -157 -26 -41 -28 -91 -62 -112 -76 l-37 -26 -104 54 c-81 42 -107 61 -118
84 -18 41 -59 60 -100 46 -26 -9 -44 -6 -123 24 -329 123 -739 176 -1104 144z
m-263 -327 c25 -13 51 -17 80 -14 23 2 42 1 42 -2 0 -4 -9 -24 -19 -45 -14
-27 -18 -49 -14 -79 6 -45 1 -49 -37 -27 -14 8 -49 14 -77 15 -29 0 -53 2 -53
5 0 4 7 20 16 37 10 19 15 48 12 79 -1 27 1 49 5 49 4 0 24 -8 45 -18z m872
-642 c37 -37 37 -38 -200 -203 -107 -75 -203 -142 -214 -150 -17 -13 -16 -15
20 -38 22 -13 42 -25 47 -27 4 -2 66 37 138 88 99 69 137 90 157 88 22 -2 28
-9 30 -34 3 -26 -3 -35 -35 -56 -21 -14 -80 -54 -130 -90 l-92 -65 26 -36 c14
-21 30 -37 35 -37 5 0 128 84 274 186 246 173 268 186 291 175 19 -9 24 -17
21 -38 -3 -24 -44 -56 -276 -218 l-273 -190 6 -39 c11 -74 8 -75 209 66 194
135 202 139 229 96 6 -8 8 -22 5 -29 -3 -8 -101 -81 -217 -162 -136 -96 -211
-154 -211 -165 0 -10 -6 -41 -13 -69 -9 -35 -10 -50 -3 -46 6 4 70 48 141 98
72 50 138 94 147 97 10 4 26 -1 40 -11 18 -15 20 -23 13 -40 -14 -31 -583
-425 -653 -452 -85 -33 -238 -38 -329 -10 -354 107 -481 550 -238 828 37 42
478 363 551 401 16 9 26 8 43 -4 41 -29 23 -53 -99 -139 l-115 -80 65 -8 c36
-5 70 -9 75 -9 6 -1 120 76 255 170 134 95 248 172 252 172 4 0 17 -9 28 -20z
m1621 -571 c21 -7 39 -15 39 -18 0 -3 -16 -16 -35 -29 -30 -19 -35 -27 -35
-62 0 -22 -2 -40 -5 -40 -3 0 -19 10 -35 22 -26 19 -34 20 -67 10 -20 -6 -39
-10 -41 -8 -2 2 2 22 9 44 11 36 10 43 -10 68 -30 38 -26 45 17 38 35 -5 40
-3 67 32 l29 38 14 -42 c11 -35 19 -43 53 -53z m-3543 -33 c41 -21 57 -24 111
-19 l63 6 -29 -59 c-25 -51 -28 -66 -23 -114 4 -30 6 -56 4 -58 -1 -2 -25 9
-54 23 -47 24 -59 26 -117 19 l-65 -7 27 54 c24 47 27 61 22 116 -4 39 -2 63
4 63 5 0 31 -11 57 -24z m2846 -726 l29 -11 -20 -22 c-12 -12 -24 -32 -28 -44
-8 -28 -21 -29 -35 -4 -5 11 -24 22 -41 26 l-31 7 25 26 c14 15 28 38 32 51
l7 24 17 -21 c9 -11 29 -26 45 -32z m-3303 -137 l48 -28 56 28 c62 30 63 29
44 -52 -10 -44 -9 -45 31 -86 22 -22 40 -43 40 -47 0 -3 -26 -8 -58 -12 l-58
-7 -28 -57 -28 -57 -29 57 c-30 59 -31 60 -113 73 l-39 6 46 47 c45 46 45 48
37 92 -11 55 -12 70 -4 70 3 0 28 -12 55 -27z m1098 -68 c12 -41 23 -75 24
-75 1 0 34 13 72 29 38 16 71 28 73 26 2 -1 -12 -32 -30 -66 -18 -35 -34 -67
-36 -70 -2 -4 29 -19 68 -35 39 -15 73 -30 75 -34 2 -4 -31 -17 -75 -29 l-78
-23 30 -70 c16 -39 27 -72 24 -75 -3 -3 -35 11 -72 31 -36 20 -67 36 -69 34
-1 -2 -15 -35 -30 -75 -15 -40 -31 -71 -34 -69 -4 3 -15 36 -26 75 -10 39 -24
71 -31 71 -6 0 -37 -11 -68 -25 -31 -14 -61 -25 -67 -25 -5 0 7 32 27 70 20
39 35 72 33 73 -2 2 -38 17 -79 34 l-74 31 74 22 c41 12 78 24 82 26 4 3 -7
37 -23 76 -16 39 -28 73 -26 74 2 2 32 -12 68 -31 35 -19 67 -35 70 -35 4 0
20 31 35 70 16 38 32 70 35 70 3 0 16 -34 28 -75z m2149 -397 c2 -11 -39 -45
-132 -111 l-136 -95 26 -17 c26 -17 27 -17 110 40 81 56 114 65 114 30 0 -8
-34 -38 -75 -67 -41 -29 -75 -57 -75 -63 0 -5 6 -17 13 -26 11 -15 31 -4 176
97 128 89 167 112 177 103 8 -6 14 -17 14 -23 0 -9 -147 -117 -323 -237 -4 -3
-5 -20 0 -36 l8 -30 113 80 c105 74 115 78 130 63 15 -15 15 -17 -3 -35 -11
-11 -69 -54 -130 -96 -99 -69 -111 -80 -116 -113 -4 -20 -6 -38 -5 -39 1 -2
42 25 90 59 79 54 89 59 103 45 8 -8 12 -20 9 -26 -12 -19 -338 -243 -383
-263 -66 -29 -167 -27 -235 5 -77 35 -113 70 -150 144 -28 57 -32 77 -32 137
1 78 22 139 68 193 15 18 99 83 187 144 132 91 162 109 174 99 8 -7 15 -16 15
-21 0 -5 -29 -30 -66 -56 -53 -39 -62 -49 -47 -54 40 -16 65 -5 203 91 80 55
151 99 160 98 8 -2 16 -11 18 -20z m-1328 -51 c0 -8 -31 -35 -70 -62 -38 -27
-70 -52 -70 -56 0 -21 25 -17 62 10 23 17 48 31 55 31 25 0 13 -21 -32 -52
-33 -23 -42 -35 -34 -44 8 -10 31 2 101 52 97 68 108 73 108 50 0 -8 -40 -43
-90 -77 -60 -41 -90 -69 -90 -81 0 -21 -1 -22 79 34 49 34 71 40 71 19 0 -4
-34 -31 -75 -60 -51 -35 -75 -59 -75 -72 0 -18 4 -18 44 11 48 32 66 37 66 18
0 -7 -50 -47 -111 -88 -106 -72 -113 -75 -168 -75 -102 0 -173 70 -173 170 0
75 25 109 133 186 86 62 119 76 119 51 0 -4 -16 -18 -36 -32 -31 -21 -34 -25
-18 -31 14 -4 44 11 103 52 89 62 101 67 101 46z m-1462 -716 c28 -14 50 -18
85 -14 26 3 47 3 47 -1 0 -4 -9 -24 -20 -45 -15 -30 -18 -50 -13 -91 l6 -52
-43 22 c-34 17 -55 21 -97 18 -29 -3 -53 -3 -53 -1 0 2 9 22 21 45 16 31 20
54 17 90 -3 26 -1 48 4 48 5 0 26 -9 46 -19z m3560 -56 c27 -8 28 -21 3 -35
-11 -5 -22 -24 -26 -41 l-7 -31 -26 25 c-15 14 -38 28 -51 32 l-25 8 27 19
c15 11 27 28 27 37 0 28 12 33 34 12 12 -10 31 -22 44 -26z m-1538 -58 c17
-19 47 -39 71 -46 l42 -13 -37 -36 c-19 -21 -39 -52 -42 -70 -9 -46 -18 -47
-51 -8 -19 23 -43 38 -73 46 l-45 12 36 32 c23 19 42 47 49 74 7 23 15 42 17
42 2 0 17 -15 33 -33z m568 -578 c23 -7 42 -14 42 -16 0 -2 -15 -17 -33 -33
-19 -16 -39 -47 -46 -70 -6 -22 -15 -40 -19 -40 -4 0 -20 16 -35 35 -15 19
-34 35 -42 35 -7 0 -26 5 -42 11 l-28 10 33 30 c19 17 41 51 49 76 l16 47 31
-36 c19 -23 47 -41 74 -49z m-1915 -99 l47 -24 56 28 57 27 -7 -43 c-4 -24 -9
-52 -12 -63 -3 -14 8 -33 41 -65 l46 -45 -63 -10 c-62 -10 -63 -11 -90 -60
-15 -28 -30 -49 -34 -48 -3 1 -17 24 -29 51 -21 46 -26 50 -67 57 -86 13 -85
12 -34 64 26 26 45 49 43 52 -9 9 -18 111 -10 107 4 -2 29 -14 56 -28z"/>
</g>
</svg>
